<?xml version="1.0" standalone="no"?>
<!DOCTYPE svg PUBLIC "-//W3C//DTD SVG 20010904//EN"
 "http://www.w3.org/TR/2001/REC-SVG-20010904/DTD/svg10.dtd">
<svg version="1.0" xmlns="http://www.w3.org/2000/svg"
 width="400.000000pt" height="400.000000pt" viewBox="0 0 400.000000 400.000000"
 preserveAspectRatio="xMidYMid meet">

<g transform="translate(0.000000,400.000000) scale(0.100000,-0.100000)"
fill="#000000" stroke="none">
<path d="M2360 3633 c-49 -7 -180 -46 -180 -54 0 -5 -8 -9 -18 -9 -10 0 -32
-10 -50 -23 l-31 -23 565 0 c311 1 571 -2 577 -6 11 -7 69 20 75 35 4 8 69 37
84 37 5 0 12 -10 17 -22 7 -19 3 -26 -23 -42 -48 -29 -87 -64 -77 -70 4 -3 9
-272 9 -597 0 -325 3 -594 7 -597 3 -3 16 6 29 21 13 15 28 27 34 27 16 0 70
67 92 114 19 42 19 64 18 592 l-1 549 -25 28 c-15 15 -42 31 -62 36 -32 8
-980 12 -1040 4z"/>
<path d="M1407 3023 c-3 -3 -69 -5 -147 -4 l-140 1 -72 -37 c-71 -37 -131 -90
-122 -105 3 -4 1 -8 -4 -8 -16 0 -32 -58 -32 -112 0 -46 -2 -50 -32 -64 -18
-8 -41 -19 -51 -24 -41 -23 -54 -30 -87 -47 -19 -9 -39 -21 -45 -25 -5 -4 -48
-33 -95 -64 -47 -31 -92 -63 -100 -70 -8 -7 -24 -21 -35 -31 -12 -10 -38 -33
-59 -52 -43 -37 -116 -125 -116 -140 0 -5 -3 -11 -7 -13 -16 -7 -52 -67 -64
-106 -7 -23 -17 -42 -22 -42 -6 0 -8 -3 -4 -6 3 -3 -3 -31 -14 -61 -86 -251
-10 -576 184 -784 55 -59 166 -149 184 -149 6 0 16 -7 23 -14 6 -8 28 -20 48
-26 20 -6 46 -15 57 -20 57 -23 87 -32 165 -44 47 -7 105 -12 130 -11 107 7
175 18 182 28 4 6 10 9 13 5 8 -7 126 34 159 56 14 9 26 14 26 12 0 -3 28 11
63 31 34 20 84 47 111 60 47 24 83 46 137 88 14 11 36 27 49 35 40 27 85 64
131 107 41 40 48 43 104 44 270 4 323 6 345 12 21 6 29 2 50 -28 14 -20 40
-43 58 -51 30 -15 32 -20 32 -69 0 -28 3 -86 6 -128 l7 -77 -64 0 c-47 0 -70
-5 -88 -19 -23 -18 -25 -24 -23 -107 2 -82 15 -143 31 -145 3 0 66 -1 138 -2
l133 -1 4 -31 c3 -16 7 -57 9 -90 5 -65 34 -165 48 -165 5 0 9 -6 9 -14 0 -21
70 -86 115 -105 54 -24 165 -44 250 -46 39 -1 89 -3 111 -3 l41 -2 2 -72 c2
-90 7 -107 40 -135 30 -26 13 -25 364 -26 232 0 250 1 275 20 56 41 53 3 52
774 l0 316 -26 28 c-14 15 -40 31 -57 34 -41 9 -555 7 -582 -3 -38 -13 -60
-57 -65 -131 -5 -68 -6 -70 -32 -73 -23 -3 -30 2 -39 25 -7 15 -11 38 -10 51
0 12 -3 22 -8 22 -5 0 -11 19 -15 42 -4 23 -11 47 -15 53 -5 5 -14 36 -21 68
-11 56 -11 59 13 83 14 14 43 62 65 107 37 76 46 108 57 197 2 19 7 52 10 72
12 71 29 318 22 318 -4 0 -37 -29 -104 -91 -17 -16 -36 -29 -41 -29 -5 0 -12
-7 -16 -15 -3 -8 -12 -15 -21 -15 -8 0 -15 -3 -15 -7 0 -5 -28 -30 -63 -58
-34 -27 -66 -55 -72 -61 -5 -6 -17 -15 -27 -20 -9 -5 -35 -26 -57 -47 -23 -21
-41 -35 -41 -32 0 3 -8 -3 -18 -12 -11 -10 -28 -25 -38 -33 -11 -8 -48 -37
-82 -63 -58 -45 -62 -47 -63 -25 0 13 0 88 1 168 0 80 1 150 1 155 0 6 -1 228
-2 493 -1 266 -4 492 -6 503 -7 26 -16 24 -83 -17 -62 -38 -95 -41 -95 -9 0
17 46 59 101 91 14 9 -109 11 -488 12 -278 0 -510 2 -516 6 -5 3 -12 3 -15 -1z
m711 -114 c106 -1 143 -11 175 -47 43 -47 43 -58 42 -703 -1 -338 -5 -621 -9
-627 -9 -14 -42 -16 -50 -3 -4 5 -6 20 -7 33 -1 29 0 709 1 798 1 72 0 91 -3
297 -3 181 -5 184 -130 188 -47 1 -90 6 -96 9 -6 4 -11 4 -11 -1 0 -8 -417 -9
-426 -1 -2 3 -21 2 -42 -1 -64 -11 -562 -5 -573 6 -6 6 -8 20 -5 31 7 20 14
21 273 22 147 0 268 2 269 3 2 2 351 0 592 -4z m-1043 -475 c85 -18 133 -44
83 -44 -15 0 -30 -4 -33 -10 -3 -5 -13 -10 -20 -10 -20 0 -93 -48 -138 -91
l-38 -36 25 -39 c14 -22 30 -44 35 -50 16 -20 19 -127 3 -164 -20 -49 -74
-119 -92 -120 -8 0 -22 -6 -31 -13 -28 -21 18 -106 98 -185 67 -66 100 -87
178 -112 46 -15 169 -20 205 -9 123 39 157 58 226 128 l23 23 -4 -28 c-4 -25
-19 -87 -29 -119 -2 -5 -10 -27 -20 -47 -9 -21 -16 -42 -16 -48 0 -5 -4 -10
-10 -10 -5 0 -10 -6 -10 -13 0 -24 -54 -72 -112 -100 -165 -79 -386 -75 -558
11 -30 15 -60 31 -66 37 -6 5 -22 17 -34 25 -30 20 -100 88 -124 122 -15 21
-24 25 -37 17 -10 -5 -27 -9 -38 -9 -26 0 -18 -24 21 -63 15 -16 28 -34 28
-41 0 -6 14 -20 30 -29 17 -10 30 -22 30 -27 0 -4 17 -19 38 -31 20 -13 39
-26 42 -31 8 -10 117 -68 130 -68 6 0 32 -10 58 -21 38 -18 71 -23 177 -26 72
-2 145 1 163 6 70 21 20 -16 -83 -60 -139 -60 -370 -57 -494 5 -28 15 -54 27
-58 27 -23 3 -53 20 -53 29 0 5 -7 10 -15 10 -8 0 -15 5 -15 10 0 6 -6 10 -12
10 -12 1 -88 65 -88 75 0 2 -10 15 -22 28 -13 13 -31 33 -40 45 -23 28 -101
193 -94 199 2 3 -2 23 -10 45 -21 61 -22 217 -1 293 6 22 11 42 12 45 8 34 44
121 54 130 4 3 15 21 25 40 11 19 25 40 30 47 48 52 116 121 116 117 0 -2 -13
-32 -29 -67 -53 -111 -72 -191 -73 -296 0 -53 3 -118 7 -144 7 -43 9 -47 24
-34 9 8 27 18 39 22 20 6 23 12 18 33 -16 70 -4 232 22 302 3 8 6 17 6 20 1 3
18 39 38 80 59 117 143 197 228 216 109 23 168 23 285 -2z m2265 -1924 c0 -5
-4 -10 -10 -10 -5 0 -10 5 -10 10 0 6 5 10 10 10 6 0 10 -4 10 -10z"/>
</g>
</svg>
